<svg width="16" height="16" viewBox="0 0 16 16" fill="none" xmlns="http://www.w3.org/2000/svg">
<path d="M5.6 10.872L8 8.472L10.4 10.872L10.872 10.4L8.472 8L10.872 5.6L10.4 5.128L8 7.528L5.6 5.128L5.128 5.6L7.528 8L5.128 10.4L5.6 10.872ZM8.002 14C7.17267 14 6.39267 13.8427 5.662 13.528C4.93178 13.2129 4.29644 12.7853 3.756 12.2453C3.21556 11.7053 2.78778 11.0707 2.47267 10.3413C2.15756 9.612 2 8.83222 2 8.002C2 7.17178 2.15756 6.39178 2.47267 5.662C2.78733 4.93178 3.21422 4.29644 3.75333 3.756C4.29244 3.21556 4.92733 2.78778 5.658 2.47267C6.38867 2.15756 7.16867 2 7.998 2C8.82733 2 9.60733 2.15756 10.338 2.47267C11.0682 2.78733 11.7036 3.21444 12.244 3.754C12.7844 4.29356 13.2122 4.92844 13.5273 5.65867C13.8424 6.38889 14 7.16867 14 7.998C14 8.82733 13.8427 9.60733 13.528 10.338C13.2133 11.0687 12.7858 11.704 12.2453 12.244C11.7049 12.784 11.0702 13.2118 10.3413 13.5273C9.61244 13.8429 8.83267 14.0004 8.002 14ZM8 13.3333C9.48889 13.3333 10.75 12.8167 11.7833 11.7833C12.8167 10.75 13.3333 9.48889 13.3333 8C13.3333 6.51111 12.8167 5.25 11.7833 4.21667C10.75 3.18333 9.48889 2.66667 8 2.66667C6.51111 2.66667 5.25 3.18333 4.21667 4.21667C3.18333 5.25 2.66667 6.51111 2.66667 8C2.66667 9.48889 3.18333 10.75 4.21667 11.7833C5.25 12.8167 6.51111 13.3333 8 13.3333Z" fill="#333333"/>
</svg>
