<svg width="36" height="36" viewBox="0 0 36 36" fill="none" xmlns="http://www.w3.org/2000/svg">
<path d="M0 8.05714C0 3.6073 3.60731 0 8.05714 0H27.9429C32.3927 0 36 3.60731 36 8.05714V27.9429C36 32.3927 32.3927 36 27.9429 36H8.05714C3.6073 36 0 32.3927 0 27.9429V8.05714Z" fill="#DFF9E6"/>
<path d="M23 14C14 16 11.9 22.17 9.82 27.34L11.71 28L12.66 25.7C13.14 25.87 13.64 26 14 26C25 26 28 9 28 9C27 11 20 11.25 15 12.25C10 13.25 8 17.5 8 19.5C8 21.5 9.75 23.25 9.75 23.25C13 14 23 14 23 14Z" fill="#1E8A3D"/>
</svg>
